<?xml version="1.0" standalone="no"?>
<!DOCTYPE svg PUBLIC "-//W3C//DTD SVG 20010904//EN"
 "http://www.w3.org/TR/2001/REC-SVG-20010904/DTD/svg10.dtd">
<svg version="1.0" xmlns="http://www.w3.org/2000/svg"
 width="700.000000pt" height="700.000000pt" viewBox="0 0 700.000000 700.000000"
 preserveAspectRatio="xMidYMid meet">
<metadata>
Created by potrace 1.11, written by Peter Selinger 2001-2013
</metadata>
<g transform="translate(0.000000,700.000000) scale(0.100000,-0.100000)"
fill="#000000" stroke="none">
<path d="M1805 6773 c-125 -11 -220 -26 -322 -52 -467 -120 -873 -457 -1075
-891 -88 -189 -142 -395 -154 -580 -3 -48 -7 -2402 -4 -2500 0 -13 159 -15
1372 -13 755 1 1392 2 1414 2 41 1 41 1 58 55 54 172 -14 345 -164 415 -51 23
-64 25 -185 23 -172 -3 -293 -22 -532 -84 -302 -77 -349 -87 -458 -92 -151 -7
-398 76 -501 169 -6 5 -28 23 -48 39 -39 31 -120 129 -153 188 -28 49 -69 162
-78 218 -4 25 -9 98 -10 163 -3 162 15 255 56 301 20 20 75 24 107 7 31 -17
102 -13 149 8 89 41 170 155 160 227 -6 40 -20 60 -58 80 -39 20 -66 18 -164
-11 -103 -29 -157 -38 -250 -38 -153 0 -226 52 -224 160 0 58 14 71 146 140
147 76 199 111 252 169 28 31 51 59 51 63 0 12 135 121 220 178 72 48 257 157
405 238 82 44 308 186 303 190 -2 1 -38 5 -80 8 -216 17 -388 110 -457 249
-36 71 -39 124 -12 183 35 76 113 132 231 164 73 20 229 22 355 5 66 -10 486
-10 1010 -1 l340 6 80 -35 c88 -40 176 -68 245 -80 25 -4 47 -8 50 -9 5 -1
114 -15 165 -20 17 -2 68 -7 115 -10 178 -13 195 -15 325 -31 102 -13 226 -49
320 -94 132 -62 157 -123 127 -312 -17 -114 -20 -194 -5 -209 6 -6 26 -13 44
-17 46 -9 233 -8 349 3 136 12 215 12 296 -2 101 -16 144 -39 173 -93 50 -89
22 -210 -69 -301 -56 -56 -102 -85 -193 -125 -194 -83 -179 -242 19 -200 122
26 152 2 175 -144 16 -105 17 -108 34 -159 8 -26 26 -58 40 -73 33 -36 154
-91 230 -106 33 -6 95 -18 138 -27 125 -24 165 -69 144 -160 -14 -64 -1 -179
38 -335 42 -169 51 -286 27 -369 -13 -45 -22 -58 -59 -81 -73 -46 -186 -71
-347 -76 -192 -6 -306 -12 -336 -19 -80 -17 -352 -24 -483 -11 -245 23 -439
129 -514 282 -61 124 -191 137 -373 37 -79 -44 -211 -173 -241 -238 -29 -62
-36 -140 -23 -253 6 -52 9 -107 7 -123 -1 -16 1 -29 5 -30 10 -1 2720 -1 2752
0 l25 1 -1 1238 c-1 680 -4 1267 -7 1303 -39 443 -285 885 -647 1158 -239 181
-479 277 -820 328 -34 5 -3445 11 -3505 6z"/>
<path d="M5079 4544 c-51 -35 -106 -77 -174 -134 -57 -48 -92 -89 -123 -143
-25 -45 -41 -60 -84 -81 -73 -36 -98 -38 -393 -40 -220 -2 -265 -5 -291 -19
-46 -24 -82 -71 -99 -131 -16 -55 -56 -308 -50 -315 6 -5 75 39 110 70 103 92
197 163 245 187 30 15 57 27 60 27 3 1 21 4 40 8 61 12 102 16 225 22 279 15
324 27 407 106 56 56 80 94 85 138 2 19 26 102 54 185 27 82 48 151 46 153 -2
2 -28 -13 -58 -33z"/>
<path d="M3557 4504 c-66 -16 -97 -30 -97 -45 0 -6 29 -40 64 -75 l64 -63 -30
-41 c-27 -37 -34 -62 -29 -112 2 -26 34 -30 82 -10 87 38 150 127 152 218 3
108 -77 158 -206 128z"/>
<path d="M3019 4117 c-45 -13 -78 -33 -153 -92 -35 -28 -44 -30 -125 -31 -81
-2 -271 22 -411 51 -14 3 -52 8 -85 11 -57 6 -59 6 -45 -12 54 -68 133 -113
242 -139 73 -17 132 -26 263 -41 33 -3 68 -8 79 -10 10 -2 44 -6 75 -10 149
-17 283 -68 356 -135 60 -56 91 -109 114 -199 l18 -73 21 64 c29 88 39 154 37
235 -7 260 -186 436 -386 381z"/>
<path d="M255 2260 c-4 -6 -7 -135 -6 -236 l1 -61 3268 0 3267 0 0 149 c0 91
-4 148 -10 149 -41 4 -6518 3 -6520 -1z"/>
<path d="M276 1602 c-12 -12 67 -272 116 -382 l25 -55 3098 0 3098 0 24 45
c36 71 98 267 116 370 l5 25 -3240 0 c-1782 0 -3241 -1 -3242 -3z"/>
<path d="M580 950 c5 -8 56 -66 115 -127 304 -321 674 -524 1041 -572 81 -11
3546 -9 3584 2 26 7 124 28 137 29 17 1 179 61 237 88 78 35 216 117 282 167
112 84 268 229 344 319 62 73 80 96 80 102 0 4 -1311 7 -2914 7 -2587 0 -2913
-2 -2906 -15z"/>
</g>
</svg>
